<svg version="1.1" xmlns="http://www.w3.org/2000/svg" xmlns:xlink="http://www.w3.org/1999/xlink" width="111.90636" height="141.61078" viewBox="0,0,111.90636,141.61078"><g transform="translate(-184.04682,-110.67983)"><g data-paper-data="{&quot;isPaintingLayer&quot;:true}" fill-rule="nonzero" stroke-linecap="butt" stroke-linejoin="miter" stroke-miterlimit="10" stroke-dasharray="" stroke-dashoffset="0" style="mix-blend-mode: normal"><path d="M185.04682,251.29061v-139.61078h109.90636v139.61078z" fill="none" stroke="#000000" stroke-width="2"/><path d="M185.04682,251.29061v-139.61078h109.90636v139.61078z" fill="#9966ff" stroke="#000000" stroke-width="2"/><path d="M225.62183,139.31307c-0.16644,6.12622 -0.5086,12.41505 0.06228,18.3938c0.32723,3.42705 1.46041,6.74402 1.79984,10.16989c0.2996,3.02385 0.27105,6.14359 0.18699,9.2567h0.03044c3.12882,-1.4966 6.94806,-0.4519 10.35199,-1.12918c0.97057,-0.19311 1.78658,-0.87954 2.7415,-1.1392c2.09504,-0.56969 4.34338,-0.48297 6.41292,-1.13927c4.06244,-1.28828 6.19567,-4.7544 8.25717,-8.0528c1.05523,-1.68836 3.36452,-4.02535 3.75265,-6.11133c0.38783,-2.08438 -0.10032,-4.23952 -0.10032,-6.35967c0,-1.61189 0.72657,-3.31103 0.19244,-4.83185c-0.57915,-1.649 -2.12033,-2.78895 -3.00883,-4.29399c-2.13243,-2.19125 -4.89497,-2.9775 -7.84778,-3.41607c-7.03413,-1.04475 -14.24639,-0.47386 -21.35009,-0.65798zM227.5022,214.58261c0,3.21672 0.26721,6.09574 0.58352,9.25881c0.08788,0.87885 0.18505,1.78292 0.06251,2.65577c0.92831,-0.1388 2.3892,0.04243 3.21961,-0.01281c3.71067,-0.24684 8.05667,-0.58421 11.72266,-1.17303c6.99386,-1.12334 15.33465,-5.50506 19.74348,-11.11609c2.39765,-3.05145 1.70043,-7.7983 1.71202,-11.33876c-0.23389,-2.59135 -2.17882,-5.0321 -3.63393,-7.31479c-0.69041,-1.08307 -1.70317,-1.93451 -2.40708,-3.00885c-0.37301,-0.56931 -0.30894,-1.40506 -0.79624,-1.88022c-0.69715,-0.67979 -1.79374,-0.80335 -2.56519,-1.39748c-0.7927,-0.6105 -1.21626,-1.65245 -2.07078,-2.17291c-2.56516,-1.56236 -5.71447,-1.64949 -8.52444,-1.85646c-4.64853,-0.34238 -9.1868,-0.52602 -13.8244,-0.57727c-0.81418,0.13731 -1.62392,0.17038 -2.42628,-0.01485c-0.11094,-0.00014 -0.22196,-0.00021 -0.33306,-0.00021c0,0 -0.18462,0 -0.46239,0c0,9.98305 0,19.9661 0,29.94915zM224.31318,131.52698c1.47043,-0.45767 2.92138,0.2678 2.92138,0.2678l1.5916,0.90796c11.27358,-0.52668 24.78661,-1.7456 33.38627,6.75782c1.34741,2.21482 3.41018,4.07265 4.21242,6.53788c0.2384,0.7326 0.19244,5.99366 0.19244,7.20356c0,1.01517 0.02699,7.47036 -0.10032,8.08282c-0.63418,3.05098 -3.08324,5.78893 -4.67214,8.33117c-2.48207,3.97131 -4.68711,6.90996 -8.71298,9.44016c2.40117,1.07552 4.48269,2.6072 6.62729,4.28746c1.07605,0.84307 2.49387,1.23865 3.45252,2.21315c2.39142,2.43097 3.84157,6.56368 5.70664,9.38183c0.57021,0.8616 1.69341,1.33116 2.09753,2.28204c0.66713,1.56973 0.66974,3.34484 1.00461,5.01725c0.01352,4.78435 0.26205,8.50237 -1.44586,13.1024c-1.76073,4.74229 -5.86819,7.54708 -9.86356,10.20137c-6.28335,4.17431 -12.27075,6.53592 -19.79995,7.22065c-4.32116,0.39298 -8.55,1.61957 -12.94648,1.21632c-1.81006,-0.16602 -4.01513,0.34323 -5.38631,-0.84997c-1.4772,-1.28546 -1.51926,-3.63051 -1.95606,-5.53937c-0.92482,-4.04157 -0.62002,-8.85335 -0.62002,-13.0067c0,-10.02951 0,-20.05902 0,-30.08853c0,-5.19858 0.54125,-10.70793 0.01825,-15.87829c-0.35051,-3.46512 -1.48134,-6.82312 -1.81078,-10.29031c-0.73668,-7.75319 -0.01278,-15.98731 -0.01278,-23.77836c0,0 0,-3.75 3.75,-3.75c1.06031,0 1.82082,0.2998 2.36629,0.72987z" fill="none" stroke="none" stroke-width="0.5"/><path d="M207.2048,196.57975c-0.39479,1.40058 -1.48987,3.34307 -4.52744,3.34307c-4.75,0 -4.75,-4.75 -4.75,-4.75c0,-3.23998 0,-6.47996 0,-9.71994c0,-1.48824 0.53188,-3.03079 0.12707,-4.46292c-0.28152,-0.99595 -1.14321,-1.77165 -1.38856,-2.77712c-1.36671,-5.60079 -0.82135,-11.98139 -0.82135,-17.75408c0,-2.76523 -0.70278,-9.24099 1.00602,-11.25458c2.93978,-3.46413 8.87634,-2.52107 12.76963,-2.52107c6.54233,0.2149 14.58544,3.56298 18.94756,8.68137c2.28194,2.67756 2.84697,5.67032 4.14197,8.72691c0.39947,0.94286 1.32884,1.63808 1.59081,2.628c1.16613,4.40665 0.66265,12.12277 -0.63229,16.41414c-0.46866,1.55311 -0.58406,3.33031 -1.59726,4.59729c-1.00208,1.25307 -2.74254,1.66642 -4.09817,2.52468c-3.86066,2.44421 -7.01757,4.55781 -11.63604,4.78425c-2.85443,0.57089 -5.56158,0.52859 -8.34167,1.26986zM207.79806,186.67253c2.53195,-0.41904 4.99693,-0.56542 7.60259,-1.08656c3.06253,0.29613 5.03801,-2.2646 7.80384,-3.54713c0.44689,-0.20723 1.10242,0.09045 1.45608,-0.25244c0.2344,-0.22726 -0.24758,-0.6328 -0.2087,-0.95696c0.30202,-2.51779 0.55246,-4.57266 0.55246,-7.17933c0,-1.39425 0.64595,-2.85549 0.20381,-4.17778c-0.20529,-0.61396 -0.92856,-0.94384 -1.18632,-1.53769c-1.11899,-2.57802 -1.34135,-6.02837 -3.98768,-7.78817c-2.14457,-1.42613 -4.18923,-1.98453 -6.50771,-2.86985c-1.26318,-0.48235 -2.55794,-1.19515 -3.90626,-1.09352c-0.19325,0 -2.52696,0.30915 -4.1645,0.2217c-0.0435,0.4268 -0.11115,0.85806 -0.11115,1.27683c0,3.70248 0.02649,7.40613 0,11.1085c-0.01554,2.17133 0.04053,5.19221 0.56721,7.24005c0.2578,1.00235 1.15843,1.76806 1.38856,2.77712c0.54722,2.3994 0.59461,5.12059 0.49776,7.86522z" fill="#9966ff" stroke="none" stroke-width="0.5"/><path d="M265.96692,170.98295c0,-6.10959 0,-12.20382 0,-18.16128c0,0 0,-4.75 4.75,-4.75c4.75,0 4.75,4.75 4.75,4.75c0,13.42277 0,26.84554 0,40.26831v0.69428c0,0 0,4.75 -4.75,4.75c-4.75,0 -4.75,-4.75 -4.75,-4.75c0,-4.37602 0,-8.82583 0,-13.30131c-4.44436,0 -8.88872,0 -13.33308,0c-0.03391,3.27596 -0.0782,6.55377 -0.0782,9.82991v0.69428c0,0 0,4.75 -4.75,4.75c-4.75,0 -4.75,-4.75 -4.75,-4.75v-0.69428c0,-12.73499 0.77026,-25.54482 -1.32393,-38.09885c0,0 -0.7809,-4.68537 3.90448,-5.46627c4.68537,-0.7809 5.46627,3.90448 5.46627,3.90448c1.12111,6.73285 1.47343,13.52039 1.5512,20.33074c4.33318,0 8.93231,0 13.31328,0z" fill="#9966ff" stroke="none" stroke-width="0.5"/><path d="M239.00278,226.37123c-4,0 -4,-4 -4,-4c0,-5.54011 0,-13.07466 0,-18.61477c0,-13.92358 -1.0323,-28.30332 0.01477,-42.18392c0.66433,-8.80671 2.65606,-17.43796 2.64448,-26.29184c0,0 0,-0.10394 0.01676,-0.27832c-3.71717,-0.03347 -7.42357,0.01803 -11.08631,0.28332c-6.30915,0.45697 -12.49012,1.33119 -18.83592,1.33574c0,0 -4,0 -4,-4c0,-4 4,-4 4,-4c6.19911,0.00477 12.22929,-0.8888 18.39362,-1.32351c12.50424,-0.8818 26.0951,-0.60289 38.50966,0.67816c5.97563,0.61662 11.0493,0.33129 16.68541,3.06208l-0.45923,-0.42229c0,0 4,0 4,4c0,4 -4,4 -4,4l-3.11848,-0.42229c-4.57828,-2.39715 -8.9768,-1.77844 -13.896,-2.25643c-3.41785,-0.3321 -6.07346,-0.64535 -9.57805,-0.64535c-2.86066,0 -5.74452,-0.06503 -8.6361,-0.13439c0.00464,0.07908 0.00464,0.12327 0.00464,0.12327c-0.01057,9.01414 -1.97045,17.76951 -2.65648,26.72989c-1.05105,13.72782 -0.00277,27.9736 -0.00277,41.74588c0,5.54011 0,11.08022 0,16.62033v1.99444c0,0 0,4 -4,4z" fill="#ffffff" stroke="none" stroke-width="0.5"/></g></g></svg>