<svg version="1.1" xmlns="http://www.w3.org/2000/svg" xmlns:xlink="http://www.w3.org/1999/xlink" width="111.90636" height="141.61078" viewBox="0,0,111.90636,141.61078"><g transform="translate(-184.04683,-110.67989)"><g data-paper-data="{&quot;isPaintingLayer&quot;:true}" fill-rule="nonzero" stroke-linecap="butt" stroke-linejoin="miter" stroke-miterlimit="10" stroke-dasharray="" stroke-dashoffset="0" style="mix-blend-mode: normal"><path d="M185.04683,251.29067v-139.61078h109.90636v139.61078z" fill="#b100ff" stroke="#000000" stroke-width="2"/><path d="M185.04683,251.29067v-139.61078h109.90636v139.61078z" fill="#9966ff" stroke="#000000" stroke-width="2"/><path d="M236.29096,225.11933c-3.75,0 -3.75,-3.75 -3.75,-3.75c0,-7.25367 0,-16.32075 0,-23.57442c0,-5.448 0.08185,-10.53161 0.8011,-15.8395c-0.06555,-10.15705 -0.10238,-20.3158 0.10605,-30.46011c0.13716,-6.67559 0.91067,-13.20127 0.90627,-19.8901c0,0 0,-3.75 3.75,-3.75c3.75,0 3.75,3.75 3.75,3.75c-0.00049,0.77866 -0.01123,1.55509 -0.03005,2.32978c0.03004,0.2402 0.03004,0.39034 0.03004,0.39034c0,7.5559 0,15.11181 0,22.66771c0,4.28399 0.53474,9.05264 -0.04842,13.2946c-0.13017,0.94685 -0.73981,1.77906 -0.90671,2.72013c-0.04009,0.22606 -0.07123,0.45402 -0.09478,0.6836c0.0033,1.02485 0.00746,2.04973 0.01227,3.07462c0.12232,1.73741 0.33233,3.49576 0.10284,5.16638c-0.02424,0.17646 -0.04784,0.35258 -0.07081,0.52839c0.04375,6.92725 0.09891,13.85366 0.09891,20.77443c0,5.13801 0,10.27603 0,15.41404v0.90671c0,0 0,1.57573 -1.02142,2.68433c-0.25207,1.10787 -1.05807,2.87908 -3.63529,2.87908z" fill="none" stroke="none" stroke-width="0.5"/><path d="M255.42053,192.7143c-4.24853,2.12426 -6.37279,-2.12426 -6.37279,-2.12426l-0.21628,-0.60389c-1.04159,-1.44215 -2.27592,-2.53191 -3.531,-3.61091c-0.88563,7.49873 -2.14518,14.96301 -3.22165,22.37167c0.02337,4.54137 0.01195,9.08293 0.01195,13.62436v1.99444c0,0 0,4.75 -4.75,4.75l-0.00001,-0.00001c-4.75,0 -4.75,-4.75 -4.75,-4.75v-1.99444c0,-4.76594 -0.00706,-9.5319 0.01195,-14.2978c1.51373,-10.74633 3.58463,-21.63254 4.18201,-32.56191c-0.12533,-0.51167 -0.26039,-1.01796 -0.55486,-1.44156c-0.38989,-0.56085 -1.1594,-0.72254 -1.7391,-1.0838c0,0 -3.8,-2.85 -0.95,-6.65c1.03833,-1.38444 2.20275,-1.8862 3.26357,-1.96469c-0.05226,-0.89828 -0.11907,-1.79664 -0.20157,-2.695c-0.97141,-10.57798 -2.67395,-21.01861 -2.68237,-31.71428c0,0 0,-4.75 4.75,-4.75c4.75,0 4.75,4.75 4.75,4.75c-0.00878,10.38219 1.71042,20.51111 2.63614,30.77817c0.36389,4.03589 0.44026,8.06881 0.31419,12.09551c0.8886,1.37742 1.77855,2.79058 2.8012,4.20993c1.99472,2.76848 5.11224,4.44739 7.25955,7.24032l1.11334,2.05536c0,0 2.12426,4.24853 -2.12426,6.37279z" fill="#9966ff" stroke="none" stroke-width="0.5"/><path d="M206.66303,224.36569c0,-4.75 4.75,-4.75 4.75,-4.75h1.99444c2.38308,0.01453 4.74581,0.44181 7.11619,0.68793c8.28379,0.86013 17.11915,-0.02312 25.45966,-0.02312c6.34161,0 12.11268,0.21166 17.98169,-2.53114c-0.23849,-1.57922 0.32782,-3.42818 -0.00097,-4.9238c-0.35602,-1.61949 -2.03588,-2.63367 -2.84202,-4.08269c-3.89868,-7.00784 -8.41029,-13.59471 -13.05528,-20.22466c-3.3764,-4.81925 -5.84385,-11.30235 -10.09587,-15.30845c0,0 -3.35876,-3.35876 0,-6.71751c3.35876,-3.35876 6.71751,0 6.71751,0c4.62831,4.78959 7.35992,11.14336 11.17816,16.60258c4.8087,6.87538 9.49563,13.70831 13.53725,20.99376c1.22559,2.20925 3.16835,4.10972 3.80612,6.55432c1.05155,4.03064 -0.18849,8.58157 -1.3306,12.36135c-1.42975,1.16929 -2.7161,2.54009 -4.28926,3.50787c-6.32679,3.89217 -14.54039,3.26837 -21.60673,3.26837c-8.67871,0 -17.7627,0.81145 -26.39577,-0.02312c-2.06149,-0.19929 -4.10905,-0.65846 -6.18008,-0.6417h-1.99444c0,0 -4.75,0 -4.75,-4.75z" fill="#9966ff" stroke="none" stroke-width="0.5"/><path d="M195.45751,171.83431c4,0 4,4 4,4v0.66481c0,8.65561 -0.45638,16.8406 2.35477,25.0618c0.63474,1.26062 1.97508,4.04585 2.78137,5.0524c1.71409,2.13984 5.19279,5.6221 7.88711,6.58455c2.92121,1.04349 5.66906,-2.47813 6.98912,-4.4673c4.61539,-6.95481 6.48507,-14.37165 7.23279,-22.5428c0.20139,-2.20081 -0.78262,-5.65051 -0.01006,-7.6942v-2.65925c0,-2.20914 1.79086,-4 4,-4c1.90361,0 3.49663,1.32975 3.90086,3.11103l0.56392,2.25569c1.11657,2.17857 2.55011,3.7853 4.20837,4.96574c1.13425,-1.56368 2.24037,-3.12917 3.37258,-4.68242c1.16755,-1.60172 1.46503,-3.73657 2.65925,-5.31851c1.60411,-2.1249 3.91776,-3.60806 5.94267,-5.33667c1.76242,-1.50453 3.45828,-4.06009 5.38707,-5.15858c1.16452,-0.66322 2.64545,-0.48757 3.91335,-0.92161c5.69519,-1.94961 12.19005,-4.08528 17.42284,0.95507c2.66637,2.5683 3.78447,7.68349 4.47617,11.07685c0.02511,3.93835 0.93005,9.45161 -1.16455,13.00196c-3.56145,6.03667 -13.21184,7.33555 -19.43632,7.34771c-9.27281,0.01811 -19.72066,1.24114 -27.56329,-4.35222c-0.1013,0.98423 -0.23346,1.98478 -0.40517,3.02199c-0.34124,2.06123 -0.21354,4.19864 -0.7144,6.227c-0.27622,1.11863 -1.07186,2.04717 -1.47108,3.12803c-1.9501,5.27966 -4.29903,10.27721 -8.04267,14.52929c-0.93321,1.05995 -1.48556,2.52587 -2.67741,3.28341c-2.65535,1.68774 -7.51752,2.82885 -10.71952,1.93952c-2.26559,-0.62925 -6.506,-3.95087 -8.24808,-5.52804c-3.60178,-3.26082 -5.55505,-6.4931 -7.67596,-10.75716c-0.74909,-2.29111 -1.69743,-4.52641 -2.24727,-6.87332c-1.56645,-6.68608 -0.71646,-14.3633 -0.71646,-21.24994v-0.66481c0,0 0,-4 4,-4zM247.20704,184.99186c4.76313,0.64771 10.03206,0.12858 14.73179,0.13872c3.48961,0.00753 5.90447,-0.4466 9.15145,-1.70835c0.04584,-0.01781 2.88974,-0.70384 3.32327,-1.58095c0.99533,-2.01376 0.14613,-6.06766 0.16508,-8.27207c-0.33634,-1.7401 -0.94625,-4.82776 -2.17196,-6.2083c-2.32399,-2.61755 -7.01795,0.26069 -9.16969,0.95507c-0.87714,0.28306 -1.92108,-0.02487 -2.73478,0.40802c-1.67976,0.89363 -2.47796,2.90793 -3.92032,4.14881c-1.62718,1.39989 -3.39071,2.21409 -4.69434,3.97072c-1.18122,1.59167 -1.51962,3.6968 -2.65925,5.31851c-0.66222,0.94235 -1.33729,1.88577 -2.02124,2.82983z" fill="#9966ff" stroke="none" stroke-width="0.5"/><path d="M253.94996,142.59365c0,-2.20914 1.79086,-4 4,-4c2.20914,0 4,1.79086 4,4c0,2.20914 -1.79086,4 -4,4c-2.20914,0 -4,-1.79086 -4,-4z" fill="#9966ff" stroke="none" stroke-width="0.5"/><path d="M212.06672,219.04717c0,-4 4,-4 4,-4l2.96458,0.11943c8.07234,2.01808 17.97179,4.89775 25.8338,0.96477c1.64674,-0.82378 4.14556,-1.22814 4.63642,-3.0028c0.45741,-1.65368 -0.20527,-4.93694 -0.20527,-6.71285c0,-4.26934 -0.00659,-8.53832 0.02997,-12.80753c-0.50841,-2.03364 -0.53828,-4.16003 -0.68866,-6.25085c-0.55123,-7.66416 -1.42914,-15.3802 0.07769,-22.97456c0.96987,-4.88808 1.45156,-10.35394 4.83406,-14.37992c0.84927,-1.01083 2.11286,-1.58734 3.10945,-2.45327c1.13616,-0.9872 3.32187,-3.60596 4.40772,-4.30643c1.00283,-0.64691 2.34397,-0.64877 3.32407,-1.32963c1.1275,-0.78326 1.84046,-2.04399 2.85834,-2.96521c2.76113,-2.49891 4.65022,-3.58838 7.76183,-5.6662c0,0 3.3282,-2.2188 5.547,1.1094c2.2188,3.3282 -1.1094,5.547 -1.1094,5.547c-3.89494,2.59205 -6.91144,6.01677 -10.65385,8.65374c-0.97553,0.68738 -2.30055,0.71598 -3.32407,1.32963c-1.46401,0.87775 -2.26564,2.57028 -3.57004,3.67133c-0.68529,0.57845 -1.61421,0.8645 -2.20905,1.53561c-2.41472,2.72433 -2.47976,7.59129 -3.14369,10.88298c-1.6093,7.97867 -1.25712,18.71583 0.71865,26.6189c0.03669,5.48144 0.02997,10.96272 0.02997,16.44425c0,1.13745 0.0463,5.95831 -0.20527,6.58342c-1.72037,4.2748 -4.74429,5.6771 -8.65984,7.63421c-9.7675,4.88211 -21.27706,2.15091 -31.34014,-0.36486l-1.0243,0.11943c0,0 -4,0 -4,-4z" fill="#000000" stroke="none" stroke-width="0.5"/><path d="M223.36855,193.78427c0,-4 4,-4 4,-4l0.09913,0.0402c0.5245,-0.04323 0.97869,-0.07159 1.36886,-0.08846c-1.16492,-0.30544 -2.58347,-1.00837 -3.54097,-2.49139c-3.07736,-4.76638 0.97551,-10.4399 3.89824,-13.57392c0,0 2.82843,-2.82843 5.65685,0c2.82843,2.82843 0,5.65685 0,5.65685c-0.65366,0.57275 -1.50732,0.97697 -1.96098,1.71826c-0.24564,0.40139 -0.10606,0.92699 -0.12895,1.40772c1.21426,-0.37979 3.50227,0.80873 4.19499,1.9693c2.98053,4.99358 2.57395,9.51625 -2.47981,12.27434c-1.74662,0.95321 -3.91791,0.69793 -5.87686,1.0469l-1.2305,0.0402c0,0 -4,0 -4,-4z" fill="#000000" stroke="none" stroke-width="0.5"/></g></g></svg>