<svg version="1.1" xmlns="http://www.w3.org/2000/svg" xmlns:xlink="http://www.w3.org/1999/xlink" width="111.90636" height="141.61078" viewBox="0,0,111.90636,141.61078"><g transform="translate(-184.04682,-110.67983)"><g data-paper-data="{&quot;isPaintingLayer&quot;:true}" fill-rule="nonzero" stroke-linecap="butt" stroke-linejoin="miter" stroke-miterlimit="10" stroke-dasharray="" stroke-dashoffset="0" style="mix-blend-mode: normal"><path d="M185.04682,251.29061v-139.61078h109.90636v139.61078z" fill="#9966ff" stroke="#000000" stroke-width="2"/><path d="M254.30883,189.37479c-4.65925,-0.96466 -9.55711,-0.52895 -14.30883,-0.52895c-7.2927,0 -14.56894,0.25913 -21.80038,1.17458c0,0 -0.43371,0.05421 -1.02351,-0.02245c0.07225,0.43956 0.13273,0.87774 0.01429,1.29227c-0.56375,1.97316 -1.8852,3.67315 -2.46254,5.64237c-0.44947,1.53307 -0.17684,3.21257 -0.58631,4.75681c-0.45238,1.70608 -1.46984,3.22154 -1.97745,4.912c-1.94778,6.48661 -3.16351,12.93658 -5.31455,19.39713c0,0 -1.18585,3.55756 -4.74342,2.37171c-3.55756,-1.18585 -2.37171,-4.74342 -2.37171,-4.74342c2.14637,-6.43142 3.34122,-12.82242 5.27959,-19.28957c0.4702,-1.56876 1.45245,-2.95961 1.8709,-4.54295c0.41823,-1.58249 0.15398,-3.30162 0.61723,-4.87152c0.5375,-1.8215 1.82988,-3.36342 2.35162,-5.1895c0.29596,-1.03583 -0.25614,-2.19983 0.05438,-3.23139c0.38039,-1.26369 1.4816,-2.21093 1.95469,-3.44291c2.39891,-6.247 3.32138,-13.18116 5.31238,-19.57713c1.96456,-6.31104 5.38087,-12.39106 7.9892,-18.47716c1.88146,-3.76836 3.66653,-7.55823 5.39695,-11.39205c0.81466,-1.80492 0.62791,-4.02035 1.67919,-5.69851c1.1703,-1.86816 2.21372,-4.78604 4.41379,-4.92492c4.5221,-0.28546 7.81967,9.13471 8.73218,12.25088c0.5336,1.8222 0.41658,3.8079 1.0457,5.59937c0.29952,0.85292 1.26723,1.32724 1.6708,2.13614c2.39669,4.80377 4.9748,10.3996 6.82549,15.48639c0.46125,1.2678 0.50823,2.67623 1.06733,3.90403c0.44434,0.97579 1.49549,1.60438 1.89425,2.59967c0.49485,1.23513 0.3356,2.65246 0.72032,3.9262c0.71224,2.35807 1.81754,4.58735 2.4991,6.95447c0.8568,5.09533 2.64681,9.24002 4.13668,14.15887c0.75768,2.50151 0.89137,5.15094 1.32264,7.72885c0.31698,1.89472 1.61718,3.49417 2.22257,5.31734c0.88056,2.65185 1.17591,5.4662 1.91262,8.16156c1.32096,4.83297 2.95924,9.30581 4.03478,14.17686c0.55932,0.68821 2.00422,2.88577 -0.19334,5.08333c-2.65165,2.65165 -5.3033,0 -5.3033,0l-1.6273,-2.51799c-1.02616,-5.13078 -2.78523,-9.76731 -4.15959,-14.8172c-0.6718,-2.46844 -0.88571,-5.05864 -1.69801,-7.48447c-0.76212,-2.276 -2.13717,-4.36128 -2.59159,-6.71807c-0.42918,-2.22589 -0.40611,-4.55062 -1.08445,-6.71364c-0.29687,-0.94665 -0.60235,-1.8702 -0.90852,-2.78068zM240,181.34585c4.93902,0 9.87873,-0.29392 14.74679,0.49113c-0.37775,-1.39989 -0.70504,-2.83507 -0.95364,-4.34125c-0.60763,-2.14816 -1.67775,-4.14494 -2.31507,-6.28448c-0.31691,-1.0639 -0.07162,-2.26408 -0.48322,-3.29505c-0.34628,-0.86736 -1.33048,-1.36403 -1.71638,-2.2145c-0.64943,-1.43125 -0.80288,-3.0436 -1.33975,-4.52076c-1.74544,-4.80243 -4.13952,-10.06437 -6.41346,-14.60214c-0.49382,-0.98545 -1.56444,-1.64166 -1.93982,-2.67803c-0.74678,-2.06174 -0.7402,-4.33305 -1.36139,-6.43605c-0.14444,-0.48899 -0.33389,-0.96147 -0.54252,-1.42699c-0.15032,0.35605 -0.2551,0.59434 -0.27836,0.64736c-1.70036,3.87652 -3.53718,7.68571 -5.43492,11.47524c-2.4816,5.79041 -5.8317,11.61989 -7.65683,17.62907c-1.62953,5.36516 -2.61905,11.06776 -4.26642,16.47403c6.62841,-0.68658 13.27906,-0.91759 19.95498,-0.91759z" fill="none" stroke="none" stroke-width="0.5"/><path d="M216.49544,141.35947c0,11.27001 0,22.54002 0,33.81002c0,4.71309 -0.65498,10.04627 -0.03559,14.71033c0.48518,3.65349 0.7004,6.77414 0.7004,10.55257c-0.02859,4.005 0.66481,7.92281 0.66481,11.96664c0,1.16385 0.32311,2.39939 0.33297,3.56543c1.69454,-0.32127 4.07664,-0.7678 4.20054,-0.80557c2.88847,-0.88038 5.6743,-2.43209 8.52716,-3.28815c1.23375,-0.37021 2.60273,-0.17422 3.81661,-0.60511c0.99696,-0.3539 1.75898,-1.1795 2.6795,-1.70085c2.00638,-1.13634 5.59678,-1.96877 7.27728,-3.51892c0.94007,-0.86715 1.43702,-2.13484 2.33959,-3.04096c1.42443,-1.43005 3.18047,-2.50274 4.60082,-3.93683c6.29429,-6.29429 11.29415,-14.03777 11.24021,-23.23377c-0.01835,-3.12943 0.04849,-6.36628 -1.50098,-9.19367c-1.23749,-2.25809 -4.99676,-6.16065 -7.1634,-7.56214c-1.2482,-0.8074 -2.75576,-1.1642 -3.98888,-1.99444c-2.38917,-1.60858 -4.69407,-4.01776 -7.03279,-5.79613c-4.84414,-2.3766 -9.58526,-4.26807 -14.55759,-6.27846c-2.20835,-0.89287 -4.20365,-2.2442 -6.26063,-3.44538c-1.30579,-0.76252 -4.40758,-0.22904 -5.84004,-0.20462zM211.3688,134.5299c1.13063,-2.66958 4.36552,-2.66958 4.36552,-2.66958h0.66481c3.41208,0 6.78752,-0.35281 10.01917,1.12586c1.10389,0.5051 1.88638,1.54832 2.94498,2.14251c2.66305,1.49476 5.84944,1.89622 8.62824,3.00999c3.43631,1.37731 6.84392,3.38826 10.15661,5.06806c2.52797,1.87584 5.02239,4.47572 7.5931,6.17051c1.24112,0.81823 2.7613,1.15603 3.98888,1.99444c3.41174,2.33013 8.17972,7.58315 10.12174,11.05263c0.55905,0.99876 0.56531,2.22034 0.92786,3.30598c3.58579,10.73745 0.69264,22.31258 -5.13269,31.88081c-1.92767,3.16623 -4.73966,5.58417 -7.32997,8.17448c-1.46765,1.45659 -3.24168,2.58156 -4.70656,4.04093c-1.10474,1.10058 -1.78771,2.60082 -2.97892,3.60717c-0.44486,0.37582 -5.27128,2.75997 -6.18046,3.21387c-2.19756,1.09711 -4.16324,2.67955 -6.4664,3.53301c-1.32019,0.48921 -2.81258,0.32004 -4.16115,0.72451c-2.91942,0.87562 -5.78799,2.48084 -8.75798,3.35998c-4.52273,1.33877 -11.75471,3.06948 -15.66388,-0.87682c-1.35403,-1.36689 -0.83,-3.76257 -1.07662,-5.6707c-0.43431,-3.36032 0.36543,-6.87661 0.01618,-10.24523c-0.24312,-2.34502 -0.66849,-4.68236 -0.681,-7.03991c0,-4.35486 -0.64158,-8.34594 -0.66481,-12.63145c-0.08771,-16.17607 0,-32.35501 0,-48.53137c0,0 0,-4.49547 4.37336,-4.73968z" fill="#9966ff" stroke="none" stroke-width="0.5"/><path d="M222.45551,141.11717c0.202,8.16287 0.78003,16.57581 -0.09191,24.56886c-0.40603,3.72211 -1.55482,7.46829 -1.98394,11.20724c-0.65053,5.66815 0.01947,11.84004 0.01947,17.55581c0,5.76171 0,11.52343 0,17.28514c0,1.94347 0.53437,5.14444 0.17049,7.26894c1.07617,-0.06631 2.18276,0.23815 3.25246,0.07155c2.86599,-0.44636 5.62251,-1.44866 8.47625,-1.96756c4.74169,-0.86218 9.8665,-2.1335 14.18822,-4.27935c3.33681,-1.65682 6.20128,-4.55865 9.175,-6.77464c2.45223,-2.45223 7.07012,-5.05396 8.23267,-8.48112c1.40402,-4.13898 1.02514,-9.45884 1.02514,-13.75997c0,-7.44342 0.28938,-15.08863 -1.22262,-22.34945c-0.16812,-0.80732 -2.52318,-3.69203 -2.63107,-3.83752c-2.92538,-3.94503 -7.30958,-5.691 -11.06413,-8.72057c-9.17349,-1.52024 -17.46338,-7.76043 -26.95429,-7.62938zM219.70219,132.77888c1.32613,-0.39309 2.61555,0.03671 2.61555,0.03671l0.72953,0.45955c10.67661,0.10164 20.00305,6.0406 30.21965,8.32613c6.07338,4.33654 12.45867,7.51593 16.39582,14.18015c2.0588,3.48484 1.75895,6.18497 2.51416,9.96103c1.18555,5.92774 0.74249,12.03747 0.74249,18.06961c0,5.33165 0.28784,11.74388 -1.63411,16.82144c-1.82843,4.8305 -6.90735,7.98853 -10.3821,11.46328c-3.48122,2.62564 -6.85366,5.88248 -10.76939,7.85125c-6.46401,3.24999 -13.32305,4.07706 -20.22355,5.66047c-4.59054,1.05336 -12.51044,3.61407 -16.60447,-0.70131c-1.05902,-1.11628 -0.90663,-5.9344 -0.90663,-7.85446c0,-7.53455 0,-15.0691 0,-22.60365c0,-6.0002 -0.62513,-12.38446 0.01947,-18.34411c0.41147,-3.80427 1.57557,-7.62008 2.00494,-11.39641c1.03644,-9.11541 -0.02997,-18.90687 -0.02997,-28.09824c0,0 0,-4 4,-4c0.49492,0 0.9286,0.06124 1.30862,0.16855z" fill="#9966ff" stroke="none" stroke-width="0.5"/><path d="M265.15486,221.71056c-3.3282,2.2188 -5.547,-1.1094 -5.547,-1.1094l-1.4314,-2.15526c-2.16773,-3.61888 -4.07519,-8.16463 -6.85336,-11.34567c-1.36081,-1.55815 -3.34864,-2.48512 -4.70512,-4.04703c-3.38818,-3.90129 -6.67647,-7.28006 -11.17678,-9.93842c-1.10955,-0.83216 -3.96577,-2.42212 -6.3995,-4.07271c0,9.11528 0,18.23056 0,27.34584v2.65925c0,0 0,4 -4,4c-4,0 -4,-4 -4,-4c0,-25.0413 0,-52.74185 0,-77.78315c0,0 0,-4 4,-4c4,0 4,4 4,4c0,12.55393 0,25.10786 0,37.66179c0.67261,-0.45564 1.62299,-0.54264 2.30373,-1.01796c1.71998,-1.20095 3.94743,-3.61278 5.22879,-5.27431c1.4586,-1.89135 3.15275,-3.61712 4.4077,-5.64933c0.62702,-1.01538 0.69399,-2.31406 1.32963,-3.32407c2.21987,-3.52727 5.86145,-6.60036 8.07215,-10.10908c2.06149,-3.2719 3.90477,-7.25107 5.65058,-10.75184c0,0 1.78885,-3.57771 5.36656,-1.78885c3.57771,1.78885 1.78885,5.36656 1.78885,5.36656c-1.93383,3.85857 -4.01809,8.27004 -6.31606,11.85181c-2.18975,3.41311 -5.75275,6.4 -7.88336,9.83532c-0.62899,1.01416 -0.69236,2.31508 -1.32963,3.32407c-1.42306,2.25313 -3.25581,4.21985 -4.89969,6.31731c-1.52756,1.94905 -4.11084,4.6398 -6.20126,6.28541c1.36511,0.96035 2.76948,2.05319 3.3454,2.48513c5.04044,3.06505 8.97507,6.85349 12.7565,11.3356c1.30093,1.54199 3.2727,2.41335 4.60226,3.93073c3.16144,3.60804 5.30995,8.49065 7.77253,12.58761l1.22786,1.83362c0,0 2.2188,3.3282 -1.1094,5.547z" fill="#ffffff" stroke="none" stroke-width="0.5"/></g></g></svg>