<svg version="1.1" xmlns="http://www.w3.org/2000/svg" xmlns:xlink="http://www.w3.org/1999/xlink" width="111.90636" height="141.61078" viewBox="0,0,111.90636,141.61078"><g transform="translate(-184.04682,-110.67983)"><g data-paper-data="{&quot;isPaintingLayer&quot;:true}" fill-rule="nonzero" stroke-linecap="butt" stroke-linejoin="miter" stroke-miterlimit="10" stroke-dasharray="" stroke-dashoffset="0" style="mix-blend-mode: normal"><path d="M185.04682,251.29061v-139.61078h109.90636v139.61078z" fill="none" stroke="#000000" stroke-width="2"/><path d="M185.04682,251.29061v-139.61078h109.90636v139.61078z" fill="#9966ff" stroke="#000000" stroke-width="2"/><path d="M273.69916,164.49627c3.75,0 3.75,3.75 3.75,3.75v2.40708c0,5.81672 0.03344,11.6347 0,17.45135c-0.02331,4.05499 0.42709,6.04791 -1.7636,9.79451c-3.95831,6.76965 -15.22757,5.9909 -21.84483,5.9909c-11.01643,0 -21.97567,-0.01893 -32.71851,-2.49888c-4.26241,-0.98396 -7.78473,-1.27508 -10.64228,-5.07616c-2.55814,-3.40282 -2.73135,-6.87626 -3.09667,-10.84971c-0.59042,-6.4216 -1.80736,-12.52663 -1.82356,-19.0244c0,0 0,-3.75 3.75,-3.75c3.75,0 3.75,3.75 3.75,3.75c-0.0177,6.23963 1.23301,12.11903 1.78706,18.28537c0.26464,2.94532 0.08386,4.61503 1.71749,7.20341c1.22357,1.93867 4.37601,1.72264 6.2073,2.14509c10.19023,2.35073 20.61266,2.31528 31.06917,2.31528c4.7444,0 10.40897,0.46446 14.78524,-1.78774c1.99565,-1.02704 1.33302,-5.03207 1.32319,-6.49768c-0.039,-5.81648 0,-11.63478 0,-17.45135v-2.40708c0,0 0,-3.75 3.75,-3.75z" fill="none" stroke="none" stroke-width="0.5"/><path d="M242.26771,220.60031c0,-2.07107 1.67893,-3.75 3.75,-3.75c2.07107,0 3.75,1.67893 3.75,3.75c0,2.07107 -1.67893,3.75 -3.75,3.75c-2.07107,0 -3.75,-1.67893 -3.75,-3.75z" fill="none" stroke="none" stroke-width="0.5"/><path d="M219.7232,218.95086c1.77127,0 2.88203,0.6605 3.57859,1.48891c5.89435,0.47059 11.81157,1.86016 17.61099,2.53556c7.66773,0.89298 14.80922,-0.68327 22.19997,-2.33327c1.01473,-0.63041 2.05491,-1.30313 3.19932,-1.63446c-0.05248,-0.00147 -0.09464,-0.01404 -0.11266,-0.04487c-0.2459,-0.42063 -0.12451,-0.98432 -0.33883,-1.42188c-0.46595,-0.95128 -1.12747,-1.79367 -1.6791,-2.69796c-1.89581,-3.10779 -3.84701,-6.07827 -5.85201,-9.10079c-2.35731,-3.55363 -3.84,-7.57935 -6.4236,-10.99515c-5.43366,-7.1839 -11.25918,-14.12261 -16.70308,-21.38114c0,0 -2.85,-3.8 0.95,-6.65c3.8,-2.85 6.65,0.95 6.65,0.95c2.70809,3.61079 5.76926,6.94291 8.51595,10.47556c1.96176,2.52311 3.31648,5.48648 5.31851,7.97776c0.79976,0.99521 1.9406,1.68957 2.70313,2.71358c4.02847,5.40993 7.50354,11.99327 10.99285,17.79841c2.65582,4.41846 7.73081,10.89763 4.82913,16.53476c-1.23993,2.40883 -6.16996,4.93516 -8.4141,6.25304c-8.90844,2.36998 -17.71708,3.9754 -26.99621,2.98524c-6.57379,-0.70148 -13.37201,-2.67118 -20.02884,-2.62366l-4.75,-6.07963c0,0 0,-4.75 4.75,-4.75z" fill="#9966ff" stroke="none" stroke-width="0.5"/><path d="M235.58241,143.92327c0,-2.62335 2.12665,-4.75 4.75,-4.75c2.62335,0 4.75,2.12665 4.75,4.75c0,2.62335 -2.12665,4.75 -4.75,4.75c-2.62335,0 -4.75,-2.12665 -4.75,-4.75z" fill="#9966ff" stroke="none" stroke-width="0.5"/><path d="M206.62108,227.62503c-1.26491,-3.79473 2.52982,-5.05964 2.52982,-5.05964l1.4705,-0.44779c2.18827,-1.07504 4.59779,-1.73318 6.9209,-2.50812c-0.89655,-2.64163 0.17534,-5.70724 0.17534,-8.54007c0,-4.65833 0.51812,-9.34319 1.7635,-13.77493c0.10274,-0.66066 0.19345,-1.32721 0.26091,-2.0045c0.58917,-5.91555 -0.02997,-12.16742 -0.02997,-18.12604c0,-13.73947 0,-27.47895 0,-41.21842c0,0 0,-4 4,-4c4,0 4,4 4,4c0,13.73947 0,27.47895 0,41.21842c0,1.78215 0.04794,3.58604 0.1024,5.3985c0.6072,-0.61082 1.24658,-1.20209 1.91937,-1.77218c6.58657,-5.58108 18.31888,-9.25501 25.79301,-3.37326c3.17463,2.49827 3.15856,4.44973 4.06629,7.90078c0.02895,3.04139 0.651,7.09674 -0.07703,10.05032c-2.78302,11.29046 -13.44891,16.86027 -22.39928,22.42799c-3.77004,2.34521 -7.22462,4.81436 -11.07979,6.86845c-0.62366,1.39749 -2.02538,2.37152 -3.65459,2.37152c-0.48532,0 -0.95046,-0.08643 -1.38086,-0.24475c-2.29508,0.74775 -4.65386,1.38199 -6.80249,2.48171l-2.51838,0.88184c0,0 -3.79473,1.26491 -5.05964,-2.52982zM226.38245,215.35717c0.50024,-0.13667 0.99304,-0.2916 1.45652,-0.51793c1.90702,-0.93123 3.2744,-2.72031 5.07201,-3.84837c2.177,-1.36614 4.44115,-2.59051 6.61206,-3.96632c4.96848,-3.14876 10.63785,-7.38997 12.20708,-13.49449c0.53354,-2.07555 -0.10744,-5.03274 -0.07703,-7.23483c-0.95207,-4.43803 -5.19408,-4.32492 -8.91323,-3.28481c-6.36747,1.78075 -10.36027,5.65646 -13.52692,11.36905c-0.77831,1.40406 -1.38903,2.81113 -1.86646,4.23125c-0.41602,2.35546 -0.97556,4.60625 -0.96403,7.14018c0,3.20209 0,6.40417 0,9.60626z" fill="#9966ff" stroke="none" stroke-width="0.5"/><path d="M224.37689,209.72866c4,0 4,4 4,4l-0.20527,1.92972c-1.43908,4.11738 -0.80154,5.47883 -0.47901,9.64276c0.10631,1.37248 -0.30052,2.76882 -0.08754,4.12883c0.46489,2.96865 3.99925,7.17788 6.73842,8.44632c0.53386,0.24722 1.16713,-0.14958 1.75149,-0.21776c1.4688,-0.17138 2.97651,-0.12967 4.40792,-0.50091c1.03805,-0.26922 1.85292,-1.15981 2.89938,-1.39425c1.08122,-0.24223 2.24388,0.24679 3.32407,0c2.82572,-0.6456 6.2846,-5.03653 7.9107,-6.75245c0.70892,-0.74808 1.53056,-1.43573 2.01409,-2.3459c0.47319,-0.89069 0.29206,-4.34775 0.29049,-4.95862c0,0 0,-7.21797 0,-7.97776c0,-17.06354 0,-34.12708 0,-51.19062c0,-7.75192 0.54077,-15.80211 0.01947,-23.53913c-0.18823,-2.79361 -0.67348,-5.57199 -0.68428,-8.37191c0,0 0,-4 4,-4c4,0 4,4 4,4c-0.01159,2.53698 0.47824,5.05211 0.64535,7.58361c0.52861,8.008 0.01947,16.30401 0.01947,24.32743c0,17.06354 0,34.12708 0,51.19062c0,4.90087 1.17885,11.73915 -1.03914,16.31541c-2.57604,5.315 -9.63486,11.77955 -15.33812,13.50531c-1.06053,0.32091 -2.24198,-0.23834 -3.32407,0c-0.88867,0.19574 -1.53471,1.05088 -2.41913,1.265c-1.66958,0.4042 -8.95616,1.42096 -11.12574,0.61096c-1.72473,-0.64391 -2.98309,-2.15886 -4.44973,-3.27164c-3.40031,-2.57992 -6.55781,-6.51885 -7.42663,-10.88568c-0.33688,-1.69324 0.06463,-3.45884 -0.08754,-5.17855c-0.44542,-5.0339 -0.75205,-7.97642 0.85061,-12.96089l-0.20527,0.6001c0,0 0,-4 4,-4z" fill="#000000" stroke="none" stroke-width="0.5"/></g></g></svg>