<svg version="1.1" xmlns="http://www.w3.org/2000/svg" xmlns:xlink="http://www.w3.org/1999/xlink" width="71.05463" height="59.21213" viewBox="0,0,71.05463,59.21213"><g transform="translate(-192.42011,-150.79533)"><g data-paper-data="{&quot;isPaintingLayer&quot;:true}" fill-rule="nonzero" stroke="none" stroke-width="0.53231" stroke-linecap="butt" stroke-linejoin="miter" stroke-miterlimit="10" stroke-dasharray="" stroke-dashoffset="0" style="mix-blend-mode: normal"><path d="M257.56332,168.2555v0c3.0676,-2.1985 8.0165,0.1974 4.9414,3.749c-3.0571,3.5297 -8.9774,2.2293 -12.316,0.0947c-2.974,-1.9003 -4.565,-3.9763 -8.0069,-1.7981c-2.875,1.8178 -5.1719,5.3545 -8.9475,5.2251c-3.4414,-0.1182 -5.4322,-3.4557 -8.576,-4.2765c-0.7325,-0.1917 -1.4612,-0.2199 -2.1894,-0.1629c0.4881,-0.5089 0.8293,-1.0646 1.0162,-1.6523c4.9387,0.6468 5.8005,3.6538 9.9477,2.9021c5.1096,-0.9251 6.8055,-5.6227 12.0652,-5.1458c3.641,0.3301 6.7422,4.8797 12.0653,1.0647z" fill="#dd1a5a"/><g><path d="M239.097,155.9635v0c0,0 -0.5312,2.8749 1.5644,3.8544c1.787,0.5701 3.6543,0.8985 5.3726,1.6901c4.8552,2.2378 1.4367,7.5422 -1.5847,9.8151c-3.4168,2.57 -8.0144,3.4467 -12.1653,3.2647c-2.315,-0.1017 -4.1855,-0.5323 -6.7943,-1.8881c-1.9781,-1.0284 -3.4084,-2.282 -5.141,-3.9103c-0.7288,-0.6846 -1.7902,0.5323 -1.3148,1.3147c2.1606,3.5521 8.469,6.055 13.198,6.277c4.4889,0.2103 9.1029,-1.0763 12.7843,-3.6458c0.0219,0.0612 0.0474,0.1246 0.0793,0.1901c1.8386,3.7224 1.6241,9.4122 1.457,11.8108c0,0 -0.8938,10.1004 -2.3448,9.8476c-1.6055,-0.0293 -3.2109,-0.0341 -4.8185,-0.0271l-16.6036,0.1208l-6.7454,0.042c-1.8242,0.0352 -3.7597,0.1065 -5.3449,0.1714c-0.0032,-0.001 -0.0085,-0.0021 -0.0085,-0.0021c-2.0866,-0.6569 -1.9259,-9.7295 -1.9099,-10.4443c0.0868,0.0968 0.1709,0.191 0.2645,0.3002c-2.0408,-8.4488 1.8887,-21.5408 11.2391,-23.6669c0.4999,-0.1139 0.7208,-0.643 0.6276,-1.105c-1.1902,-5.8831 6.7747,-11.8848 9.7481,-5.3502c0.3018,0.6664 1.0247,0.5765 1.317,0.0149c1.2919,-2.4837 5.0968,-2.5162 6.4877,-0.6569c0.4737,0.6329 0.6654,1.3553 0.6361,1.9829z" fill="#6cbd45"/><path d="M245.8365,172.1317v0c0.0447,0.0559 0.0894,0.1176 0.1304,0.1922c2.0659,3.716 2.2597,8.8825 1.7657,11.5877l-0.8065,5.1847c-0.5323,7.7184 -2.5119,6.6868 -2.5119,6.6868c-1.7832,0.14 -3.5808,0.2166 -5.3837,0.255l-15.7536,0.1256l-6.8172,0.0798c-1.6316,0.0054 -3.4462,-0.0287 -5.1591,-0.1432c0,0 -2.1681,0.4477 -2.9666,-2.9234c-0.7984,-3.3711 -0.1772,-7.5406 -0.9757,-11.2668c0,0 0.0224,0.0107 0.0601,0.032c-0.2948,-1.2925 -0.4024,-2.6232 -0.2869,-4.1509c0.2146,-2.8212 0.8113,-5.5994 1.961,-8.1938c1.9616,-4.4203 5.2012,-8.5989 9.9563,-10.0419c-0.5808,-6.7944 8.3614,-12.2111 12.3755,-6.0928c4.8547,-5.2416 9.4197,0.4482 8.5702,2.9335c-0.0208,0.0612 -0.0421,0.1225 -0.0698,0.1794c0.0059,1.3483 0.7373,2.1138 0.9257,2.2879c0.0277,0.0255 0.0442,0.0394 0.0442,0.0394c2.8633,0.9895 6.2886,0.4758 8.173,3.1044c2.405,3.3529 -0.4285,7.9217 -3.1917,10.0941c-0.0122,0.0106 -0.0266,0.0197 -0.0394,0.0303zM240.6614,159.8168v0c-2.0956,-0.9784 -1.5644,-3.8533 -1.5644,-3.8533c0.0293,-0.6276 -0.1624,-1.3505 -0.6361,-1.9829c-1.3909,-1.8598 -5.1958,-1.8268 -6.4877,0.6569c-0.2923,0.5616 -1.0152,0.6515 -1.317,-0.0149c-2.9734,-6.5346 -10.9383,-0.5329 -9.7481,5.3491c0.0932,0.4621 -0.1277,0.9912 -0.6276,1.1051c-9.3499,2.126 -13.2794,15.2175 -11.2391,23.6668c-0.0936,-0.1091 -0.1777,-0.2028 -0.2645,-0.3002c-0.016,0.7149 -0.1767,9.7875 1.9099,10.4443c0,0 0.0053,0.0011 0.0085,0.0022c1.5852,-0.065 3.5207,-0.1363 5.3449,-0.1714l6.7454,-0.0421l16.6036,-0.1208c1.6076,-0.0064 3.2125,-0.0021 4.8185,0.0271c1.4505,0.2529 2.3448,-9.8476 2.3448,-9.8476c0.1676,-2.398 0.3816,-8.0884 -1.457,-11.8108c-0.0314,-0.0655 -0.0574,-0.1288 -0.0793,-0.19c-3.6814,2.5699 -8.2959,3.8565 -12.7843,3.6457c-4.729,-0.2219 -11.0374,-2.7248 -13.198,-6.2769c-0.4754,-0.7825 0.586,-1.9994 1.3148,-1.3148c1.7326,1.6283 3.1629,2.8819 5.141,3.9103c2.6088,1.3558 4.4793,1.787 6.7943,1.8881c4.1509,0.182 8.7485,-0.6947 12.1653,-3.2646c3.0214,-2.2724 6.4399,-7.5774 1.5847,-9.8152c-1.7183,-0.7916 -3.5861,-1.1205 -5.3726,-1.6901z" fill="#000000"/></g><g><path d="M248.1542,188.9137v0c-0.593,0.8368 -1.2957,1.6049 -1.9499,2.3932c-0.7436,0.8943 -1.8652,2.0457 -1.9961,3.2774c-6.8566,-1.8359 -0.6547,-7.4474 2.2309,-9.7092c-0.3045,0.4854 0.3689,1.2663 0.8964,0.8687c2.4108,-1.8189 6.978,-3.7426 8.0782,0.412c0.8044,3.0347 -2.8238,5.5663 -4.9951,6.756c-0.6372,0.3498 -0.3865,1.1642 0.1826,1.3952c2.9149,1.1913 6.1614,1.9749 9.3483,2.3214c-2.0275,1.936 -2.118,4.383 -0.4439,6.7688c-3.1316,-0.049 -5.3417,1.1008 -6.2876,4.0285c-2.8803,-3.9646 -4.9377,-8.4403 -7.6514,-12.5204c-0.0271,-0.0399 -0.0559,-0.0745 -0.0873,-0.1064c0.1837,-0.2343 0.3466,-0.4903 0.5228,-0.7538c0.6472,-0.9709 1.4878,-1.8327 2.2537,-2.7089c1.0104,-1.153 2.4093,-2.529 2.5684,-4.1195c0.082,-0.8235 -1.0178,-0.9225 -1.4069,-0.3806c-0.4716,0.6542 -0.791,1.4106 -1.2631,2.0776z" fill="#6cbd45"/><path d="M262.0468,195.2673v0c0.7399,0.0335 1.0758,1.0374 0.3833,1.4292c-1.021,0.5802 -2.4247,1.2355 -2.6541,2.5524c-0.3497,2.0079 0.6877,3.2018 2.0041,4.5017c0.5887,0.5829 -0.0367,1.3627 -0.7351,1.2627c-1.5873,-0.2263 -3.6181,-0.461 -5.0186,0.5488c-1.3158,0.9517 -1.4718,2.1712 -1.6602,3.6468c-0.0751,0.5743 -0.8411,1.1407 -1.3196,0.5451c-3.4653,-4.3096 -5.726,-9.3074 -8.6319,-13.9714l-0.1176,-0.6819l-0.0894,-0.518c0.1309,-1.2317 1.2525,-2.3826 1.9961,-3.2774c0.6542,-0.7872 1.3574,-1.5554 1.9504,-2.3921c0.4721,-0.667 0.7915,-1.4234 1.2631,-2.0776c0.3897,-0.5414 1.4889,-0.4429 1.4069,0.3806c-0.1591,1.5905 -1.558,2.9665 -2.5684,4.1195c-0.7659,0.8767 -1.6059,1.738 -2.2537,2.7089c-0.1762,0.2635 -0.3386,0.5195 -0.5228,0.7537c0.0314,0.0314 0.0602,0.0666 0.0873,0.1065c2.7137,4.0806 4.7711,8.5563 7.6514,12.5203c0.9464,-2.9276 3.156,-4.0774 6.2876,-4.0285c-1.6741,-2.3863 -1.5836,-4.8328 0.4439,-6.7687c-3.1874,-0.3466 -6.4334,-1.1301 -9.3483,-2.3214c-0.5696,-0.2305 -0.8198,-1.0455 -0.1826,-1.3952c2.1713,-1.1897 5.7995,-3.7213 4.9951,-6.756c-1.1008,-4.1541 -5.6679,-2.2309 -8.0782,-0.412c-0.5281,0.3976 -1.2009,-0.3833 -0.8964,-0.8687c0.009,-0.0139 0.0101,-0.0304 0.0207,-0.0437l0.0932,-0.0947l1.1801,-0.8241c2.9202,-1.8162 7.3219,-3.0346 8.8868,1.0077c1.3734,3.5398 -1.2594,6.5798 -4.087,8.4903c3.0379,1.0566 6.3648,1.7129 9.5139,1.8572z" fill="#000000"/></g><g><path d="M209.0414,184.7447v0c0,0 10.1192,7.2425 1.6454,10.1446c-0.4434,-1.2248 -1.4803,-2.3181 -2.2107,-3.3418c-0.577,-0.8085 -1.1439,-1.6214 -1.6932,-2.4491c-0.4237,-0.6393 -0.717,-1.4064 -1.2563,-1.9514c-0.5802,-0.5872 -1.5319,0.0122 -1.3446,0.783c0.3588,1.4739 1.9749,2.9734 2.9107,4.1371c0.8751,1.0869 1.7065,2.3341 2.7387,3.2965c-2.4987,3.9439 -4.4799,8.1885 -7.209,11.9785c-0.2422,-1.0518 -0.6643,-2.0441 -1.5767,-2.7031c-1.4527,-1.0497 -3.0134,-1.3334 -4.6571,-1.2887c0.8538,-1.104 1.4861,-2.398 1.1886,-3.7948c-0.321,-1.5133 -1.2201,-2.2234 -2.3496,-2.8254c2.8356,-0.699 5.8277,-0.7863 8.5717,-1.8748c0.5371,-0.2124 0.535,-0.8932 0.2055,-1.1647c-0.0596,-0.1267 -0.1592,-0.2433 -0.312,-0.3327c-2.6567,-1.5543 -6.5963,-5.7068 -3.4349,-8.569c2.4236,-2.1942 6.0502,-1.2739 8.1373,0.7553c0.4786,0.4647 1.1109,-0.2167 0.7144,-0.7154c-0.0202,-0.0266 -0.0447,-0.0474 -0.066,-0.0735c-0.0006,-0.0037 -0.0011,-0.0069 -0.0022,-0.0106z" fill="#6cbd45"/><path d="M206.7829,189.0979v0c0.5493,0.8277 1.1162,1.6405 1.6932,2.4486c0.7304,1.0236 1.7673,2.1164 2.2107,3.3418l0.6143,1.212c-0.0745,-0.0042 -0.1517,-0.0074 -0.2262,-0.0127c-2.6967,4.6326 -4.992,9.4548 -8.3743,13.6552c-0.4716,0.5845 -1.2259,0.0277 -1.2977,-0.5376c-0.1682,-1.3084 -0.3104,-2.9474 -1.672,-3.6485c-1.6448,-0.8479 -3.2439,-0.7888 -5.0175,-0.5355c-0.7069,0.1022 -1.3435,-0.6914 -0.7442,-1.2807c0.9922,-0.9773 3.7895,-3.93 1.2052,-5.3449c-0.7772,-0.4263 -1.5911,-0.7702 -2.3784,-1.1748c-0.6409,-0.3263 -0.3832,-1.1758 0.1821,-1.3898c2.8696,-1.0939 5.9879,-1.0492 8.9411,-1.7625c-3.1198,-2.2873 -6.4207,-6.879 -2.8547,-10.0169c2.2835,-2.0062 6.3525,-2.0653 8.8884,-0.2874c-0.0357,-0.1001 -0.0666,-0.1986 -0.1006,-0.2976c0.0798,0.0767 0.2661,0.2624 0.5099,0.5211c0.1938,0.206 0.4221,0.4557 0.6792,0.7564c0.0011,0.0038 0.0016,0.007 0.0022,0.0107c0.0213,0.0261 0.0458,0.0468 0.066,0.0734c0.3965,0.4988 -0.2358,1.1802 -0.7144,0.7155c-2.0871,-2.0292 -5.7137,-2.9495 -8.1373,-0.7554c-3.1614,2.8622 0.7782,7.0147 3.4349,8.5691c0.1528,0.0894 0.2524,0.206 0.312,0.3327c0.3295,0.2709 0.3316,0.9523 -0.2055,1.1646c-2.744,1.0881 -5.7361,1.1759 -8.5717,1.8748c1.1295,0.6021 2.0286,1.3122 2.3496,2.8255c0.2975,1.3968 -0.3348,2.6908 -1.1886,3.7948c1.6437,-0.0447 3.2044,0.239 4.6571,1.2887c0.9124,0.659 1.3345,1.6507 1.5767,2.7031c2.7291,-3.7901 4.7103,-8.0347 7.209,-11.9785c-1.0322,-0.9619 -1.8636,-2.2096 -2.7387,-3.2966c-0.9358,-1.1631 -2.5519,-2.6626 -2.9107,-4.137c-0.1873,-0.7714 0.7644,-1.3707 1.3446,-0.7831c0.5393,0.5451 0.8326,1.3122 1.2563,1.9515z" fill="#000000"/></g><g><path d="M217.5493,187.5643v0c0.0782,-0.4248 -0.346,-0.6356 -0.6319,-0.469c0.0086,-0.0431 0.0139,-0.0857 0.0229,-0.1283c0,0 0.7096,-3.3716 3.1939,-3.2827c2.3602,0.0847 4.153,1.4133 3.8326,4.2281c-0.1145,-0.783 -1.5059,-1.0103 -1.8929,-0.0527c-0.989,2.4502 -1.3271,5.3582 -0.3056,7.8584c0.584,1.4287 1.524,2.6531 2.0425,4.1137c0.314,0.8826 0.2118,1.8695 0.0011,2.7552c-0.3354,1.409 -1.9589,1.0694 -2.1154,-0.1485c-0.106,-0.3992 -0.1613,-0.8054 -0.1629,-1.2153c-0.033,-0.7159 -0.9512,-0.7936 -1.1961,-0.1634c-0.4003,1.0327 -0.7745,2.0457 -1.5224,2.8857c-1.0391,1.0704 -2.2202,-0.1816 -1.771,-1.0806c0.1741,-0.5967 0.7522,-1.6241 1.1078,-2.1282c0.3066,-0.4333 -0.2678,-0.8554 -0.6654,-0.6654c-0.3663,0.1853 -1.73,0.9938 -1.9062,1.0636c-1.0263,0.4051 -1.9797,-0.9214 -1.1493,-1.5762c0.8613,-0.6776 2.2176,-0.9794 3.3009,-1.0571c0.4519,-0.033 0.8735,-0.4514 0.7111,-0.9342c-0.4216,-1.2573 -0.9086,-2.4891 -1.2786,-3.7629c-0.6515,-2.2426 -0.0175,-4.0727 0.3849,-6.2402z" fill="#6cbd45"/><path d="M224.5182,198.7129v0c0.6478,1.3047 0.9044,3.5877 0.0942,4.885c-1.4707,2.3602 -3.074,1.2599 -3.8411,-0.477c-0.7058,1.4234 -1.7018,2.5982 -3.526,2.2485c-1.8284,-0.3514 -1.4249,-2.2724 -0.7479,-3.7326c-1.5703,0.5952 -3.4759,0.7682 -3.8847,-1.1252c-0.3998,-1.8535 2.4507,-2.8234 4.1578,-3.2716c-0.1134,-0.3396 -0.215,-0.6696 -0.3108,-0.9959l-0.42,-1.5246c0.0127,0 0.025,-0.0005 0.0372,-0.0005c-0.495,-2.4305 -0.3683,-4.6747 0.6409,-7.3831c0.0437,-0.1165 0.1166,-0.1911 0.1991,-0.2395c0.2864,-0.1671 0.7101,0.0436 0.6324,0.4684c-0.4024,2.1681 -1.0364,3.9976 -0.3849,6.2402c0.37,1.2733 0.857,2.5056 1.2786,3.7629c0.1624,0.4828 -0.2592,0.9012 -0.7111,0.9342c-1.0833,0.0772 -2.4396,0.3795 -3.3009,1.0572c-0.8304,0.6552 0.123,1.9812 1.1493,1.5761c0.1762,-0.0697 1.5399,-0.8783 1.9062,-1.0635c0.3976,-0.1901 0.972,0.2321 0.6654,0.6653c-0.3556,0.5041 -0.9337,1.5315 -1.1078,2.1282c-0.4492,0.8991 0.7319,2.151 1.771,1.0806c0.7479,-0.84 1.1221,-1.8535 1.5224,-2.8856c0.2449,-0.6298 1.1631,-0.5526 1.1961,0.1634c0.0016,0.4093 0.0569,0.816 0.1629,1.2152c0.1565,1.2179 1.78,1.557 2.1154,0.1485c0.2107,-0.8857 0.3129,-1.8726 -0.0011,-2.7552c-0.5185,-1.4611 -1.4585,-2.6849 -2.0425,-4.1136c-1.0215,-2.5008 -0.6834,-5.4082 0.3056,-7.8584c0.387,-0.9571 1.7789,-0.7304 1.8929,0.0527c0.0196,0.1357 0.0053,0.2858 -0.0639,0.4519c-0.6425,1.5378 -1.4144,3.1842 -1.326,4.8908c0.0277,0.5062 0.1022,0.9746 0.2087,1.4213l0.4918,1.4867c0.3524,0.84 0.7958,1.6507 1.2408,2.5492z" fill="#000000"/></g><g><path d="M238.0665,187.8304c0.4024,2.1676 1.0364,3.9977 0.3848,6.2403c-0.3699,1.2738 -0.857,2.5055 -1.2786,3.7628c-0.1623,0.4828 0.2592,0.9012 0.7112,0.9342c1.0832,0.0777 2.4395,0.3796 3.3008,1.0572c0.8309,0.6547 -0.1224,1.9812 -1.1493,1.5761c-0.1761,-0.0697 -1.5399,-0.8783 -1.9061,-1.0635c-0.3977,-0.19 -0.972,0.2321 -0.6654,0.6654c0.3556,0.5041 0.9336,1.5314 1.1077,2.1281c0.4493,0.8991 -0.7319,2.1511 -1.771,1.0806c-0.7479,-0.84 -1.1221,-1.853 -1.5224,-2.8856c-0.2448,-0.6303 -1.163,-0.5526 -1.1961,0.1634c-0.0015,0.4099 -0.0569,0.816 -0.1628,1.2152c-0.1565,1.218 -1.7801,1.5576 -2.1154,0.1486c-0.2108,-0.8858 -0.313,-1.8727 0.001,-2.7553c0.5185,-1.4606 1.4586,-2.6849 2.0425,-4.1136c1.0215,-2.5002 0.6835,-5.4082 -0.3055,-7.8584c-0.387,-0.9576 -1.7785,-0.7303 -1.8929,0.0527c-0.3205,-2.8149 1.4723,-4.1435 3.8326,-4.2281c2.4842,-0.0889 3.1938,3.2827 3.1938,3.2827c0.0091,0.0426 0.0144,0.0852 0.0229,0.1283c-0.2853,-0.1666 -0.7096,0.0442 -0.6318,0.4689v0z" fill="#6cbd45"/><path d="M231.098,198.979c0.4451,-0.8985 0.8885,-1.7092 1.2408,-2.5492l0.4919,-1.4867c0.1065,-0.4466 0.181,-0.915 0.2087,-1.4212c0.0883,-1.7066 -0.6835,-3.353 -1.326,-4.8909c-0.0692,-0.166 -0.0836,-0.3162 -0.0639,-0.4519c0.1139,-0.783 1.5059,-1.0098 1.8929,-0.0527c0.989,2.4502 1.327,5.3577 0.3055,7.8584c-0.5839,1.4287 -1.524,2.6525 -2.0424,4.1137c-0.3141,0.8825 -0.2119,1.8694 -0.0011,2.7552c0.3354,1.4085 1.9589,1.0694 2.1154,-0.1485c0.1059,-0.3992 0.1613,-0.8059 0.1629,-1.2153c0.033,-0.7159 0.9512,-0.7931 1.1961,-0.1634c0.4003,1.0321 0.7745,2.0457 1.5224,2.8856c1.039,1.0705 2.2202,-0.1815 1.7709,-1.0805c-0.174,-0.5968 -0.7521,-1.6241 -1.1077,-2.1282c-0.3066,-0.4333 0.2678,-0.8554 0.6654,-0.6654c0.3662,0.1853 1.73,0.9938 1.9062,1.0636c1.0263,0.405 1.9796,-0.9209 1.1492,-1.5762c-0.8607,-0.6776 -2.2176,-0.98 -3.3008,-1.0571c-0.4519,-0.0331 -0.8735,-0.4514 -0.7112,-0.9342c0.4216,-1.2573 0.9087,-2.4896 1.2786,-3.7629c0.6516,-2.2426 0.0176,-4.0721 -0.3848,-6.2402c-0.0777,-0.4248 0.346,-0.6356 0.6324,-0.4685c0.0825,0.0485 0.1554,0.123 0.199,0.2396c1.0093,2.7084 1.136,4.9526 0.6409,7.3831c0.0123,0 0.0245,0.0005 0.0373,0.0005l-0.42,1.5245c-0.0958,0.3263 -0.1975,0.6563 -0.3109,0.996c1.7071,0.4482 4.5576,1.418 4.1579,3.2715c-0.4094,1.8934 -2.315,1.7204 -3.8848,1.1253c0.6771,1.4601 1.0801,3.3812 -0.7479,3.7325c-1.8242,0.3497 -2.8201,-0.8251 -3.526,-2.2484c-0.767,1.7369 -2.3703,2.8371 -3.8411,0.4769c-0.8107,-1.2972 -0.5541,-3.5803 0.0942,-4.885v0z" fill="#000000"/></g><g><g><path d="M237.6411,162.6982c-1.921,0 -3.4844,-1.7029 -3.4844,-3.7959c0,-2.093 1.5634,-3.7958 3.4844,-3.7958c1.9211,0 3.4845,1.7028 3.4845,3.7958c0,2.093 -1.5628,3.7959 -3.4845,3.7959v0v0z" fill="#ffffff"/><path d="M237.6411,155.6388c-1.6304,0 -2.9521,1.4611 -2.9521,3.2635c0,1.8024 1.3217,3.2636 2.9521,3.2636c1.6305,0 2.9522,-1.4612 2.9522,-3.2636c0,-1.8029 -1.3217,-3.2635 -2.9522,-3.2635M237.6411,155.6388v0v-1.0647v0c2.215,0 4.0168,1.9414 4.0168,4.3282c0,2.3869 -1.8018,4.3282 -4.0168,4.3282c-2.2149,0 -4.0167,-1.9413 -4.0167,-4.3282c0,-2.3868 1.8018,-4.3282 4.0167,-4.3282z" fill="#000000"/></g><path d="M239.1971,157.9511c0.3428,0 0.6536,0.1661 0.8788,0.4349c0.2252,0.2683 0.3646,0.6393 0.3646,1.0486c0,0.4094 -0.1394,0.7804 -0.3646,1.0487c-0.2252,0.2688 -0.536,0.4349 -0.8788,0.4349c-0.3428,0 -0.6537,-0.1661 -0.8789,-0.4349c-0.2251,-0.2683 -0.3646,-0.6393 -0.3646,-1.0487c0,-0.4093 0.1395,-0.7803 0.3646,-1.0486c0.2252,-0.2688 0.5361,-0.4349 0.8789,-0.4349z" fill="#231f20"/></g><g><g><path d="M228.0964,164.0289c-2.43,0 -4.407,-2.069 -4.407,-4.6124c0,-2.5433 1.977,-4.6124 4.407,-4.6124c2.4299,0 4.4069,2.0691 4.4069,4.6124c0,2.5434 -1.977,4.6124 -4.4069,4.6124v0v0z" fill="#ffffff"/><path d="M228.0964,155.3364c-2.1399,0 -3.8747,1.8269 -3.8747,4.0801c0,2.2533 1.7348,4.0801 3.8747,4.0801c2.1398,0 3.8746,-1.8268 3.8746,-4.0801c0,-2.2532 -1.7348,-4.0801 -3.8746,-4.0801M228.0964,155.3364v0v-1.0646v0c2.7232,0 4.9392,2.3081 4.9392,5.1447c0,2.8367 -2.216,5.1448 -4.9392,5.1448c-2.7233,0 -4.9393,-2.3081 -4.9393,-5.1448c0,-2.8366 2.216,-5.1447 4.9393,-5.1447z" fill="#000000"/></g><path d="M230.273,158.1326c0.454,0 0.8655,0.2033 1.1631,0.5323c0.298,0.329 0.4822,0.783 0.4822,1.2839c0,0.5009 -0.1842,0.955 -0.4822,1.284c-0.2976,0.3289 -0.7091,0.5323 -1.1631,0.5323c-0.4541,0 -0.8656,-0.2034 -1.1631,-0.5323c-0.2981,-0.329 -0.4823,-0.7831 -0.4823,-1.284c0,-0.5009 0.1842,-0.9549 0.4823,-1.2839c0.2975,-0.329 0.709,-0.5323 1.1631,-0.5323z" fill="#231f20"/></g></g></g></svg>