<svg version="1.1" xmlns="http://www.w3.org/2000/svg" xmlns:xlink="http://www.w3.org/1999/xlink" width="111.90636" height="141.61078" viewBox="0,0,111.90636,141.61078"><g transform="translate(-184.04683,-110.67986)"><g data-paper-data="{&quot;isPaintingLayer&quot;:true}" fill-rule="nonzero" stroke-linecap="butt" stroke-linejoin="miter" stroke-miterlimit="10" stroke-dasharray="" stroke-dashoffset="0" style="mix-blend-mode: normal"><path d="M185.04683,251.29065v-139.61078h109.90636v139.61078z" fill="#b100ff" stroke="#000000" stroke-width="2"/><path d="M185.04683,251.29065v-139.61078h109.90636v139.61078z" fill="#9966ff" stroke="#000000" stroke-width="2"/><path d="M236.29096,225.11933c-3.75,0 -3.75,-3.75 -3.75,-3.75c0,-7.25367 0,-16.32075 0,-23.57442c0,-5.448 0.08185,-10.53161 0.8011,-15.8395c-0.06555,-10.15705 -0.10238,-20.3158 0.10605,-30.46011c0.13716,-6.67559 0.91067,-13.20127 0.90627,-19.8901c0,0 0,-3.75 3.75,-3.75c3.75,0 3.75,3.75 3.75,3.75c-0.00049,0.77866 -0.01123,1.55509 -0.03005,2.32978c0.03004,0.2402 0.03004,0.39034 0.03004,0.39034c0,7.5559 0,15.11181 0,22.66771c0,4.28399 0.53474,9.05264 -0.04842,13.2946c-0.13017,0.94685 -0.73981,1.77906 -0.90671,2.72013c-0.04009,0.22606 -0.07123,0.45402 -0.09478,0.6836c0.0033,1.02485 0.00746,2.04973 0.01227,3.07462c0.12232,1.73741 0.33233,3.49576 0.10284,5.16638c-0.02424,0.17646 -0.04784,0.35258 -0.07081,0.52839c0.04375,6.92725 0.09891,13.85366 0.09891,20.77443c0,5.13801 0,10.27603 0,15.41404v0.90671c0,0 0,1.57573 -1.02142,2.68433c-0.25207,1.10787 -1.05807,2.87908 -3.63529,2.87908z" fill="none" stroke="none" stroke-width="0.5"/><path d="M255.42053,192.71429c-4.24853,2.12426 -6.37279,-2.12426 -6.37279,-2.12426l-0.21628,-0.60389c-1.04159,-1.44215 -2.27592,-2.53191 -3.531,-3.61091c-0.88563,7.49873 -2.14518,14.96301 -3.22165,22.37167c0.02337,4.54137 0.01195,9.08293 0.01195,13.62436v1.99444c0,0 0,4.75 -4.75,4.75l-0.00001,-0.00001c-4.75,0 -4.75,-4.75 -4.75,-4.75v-1.99444c0,-4.76594 -0.00706,-9.5319 0.01195,-14.2978c1.51373,-10.74633 3.58463,-21.63254 4.18201,-32.56191c-0.12533,-0.51167 -0.26039,-1.01796 -0.55486,-1.44156c-0.38989,-0.56085 -1.1594,-0.72254 -1.7391,-1.0838c0,0 -3.8,-2.85 -0.95,-6.65c1.03833,-1.38444 2.20275,-1.8862 3.26357,-1.96469c-0.05226,-0.89828 -0.11907,-1.79664 -0.20157,-2.695c-0.97141,-10.57798 -2.67395,-21.01861 -2.68237,-31.71428c0,0 0,-4.75 4.75,-4.75c4.75,0 4.75,4.75 4.75,4.75c-0.00878,10.38219 1.71042,20.51111 2.63614,30.77817c0.36389,4.03589 0.44026,8.06881 0.31419,12.09551c0.8886,1.37742 1.77855,2.79058 2.8012,4.20993c1.99472,2.76848 5.11224,4.44739 7.25955,7.24032l1.11334,2.05536c0,0 2.12426,4.24853 -2.12426,6.37279z" fill="#9966ff" stroke="none" stroke-width="0.5"/><path d="M206.66303,224.36568c0,-4.75 4.75,-4.75 4.75,-4.75h1.99444c2.38308,0.01453 4.74581,0.44181 7.11619,0.68793c8.28379,0.86013 17.11915,-0.02312 25.45966,-0.02312c6.34161,0 12.11268,0.21166 17.98169,-2.53114c-0.23849,-1.57922 0.32782,-3.42818 -0.00097,-4.9238c-0.35602,-1.61949 -2.03588,-2.63367 -2.84202,-4.08269c-3.89868,-7.00784 -8.41029,-13.59471 -13.05528,-20.22466c-3.3764,-4.81925 -5.84385,-11.30235 -10.09587,-15.30845c0,0 -3.35876,-3.35876 0,-6.71751c3.35876,-3.35876 6.71751,0 6.71751,0c4.62831,4.78959 7.35992,11.14336 11.17816,16.60258c4.8087,6.87538 9.49563,13.70831 13.53725,20.99376c1.22559,2.20925 3.16835,4.10972 3.80612,6.55432c1.05155,4.03064 -0.18849,8.58157 -1.3306,12.36135c-1.42975,1.16929 -2.7161,2.54009 -4.28926,3.50787c-6.32679,3.89217 -14.54039,3.26837 -21.60673,3.26837c-8.67871,0 -17.7627,0.81145 -26.39577,-0.02312c-2.06149,-0.19929 -4.10905,-0.65846 -6.18008,-0.6417h-1.99444c0,0 -4.75,0 -4.75,-4.75z" fill="#ffffff" stroke="none" stroke-width="0.5"/></g></g></svg>