<svg version="1.1" xmlns="http://www.w3.org/2000/svg" xmlns:xlink="http://www.w3.org/1999/xlink" width="111.90636" height="141.61078" viewBox="0,0,111.90636,141.61078"><g transform="translate(-184.04682,-110.67983)"><g data-paper-data="{&quot;isPaintingLayer&quot;:true}" fill-rule="nonzero" stroke-linecap="butt" stroke-linejoin="miter" stroke-miterlimit="10" stroke-dasharray="" stroke-dashoffset="0" style="mix-blend-mode: normal"><path d="M185.04682,251.29061v-139.61078h109.90636v139.61078z" fill="none" stroke="#000000" stroke-width="2"/><path d="M185.04682,251.29061v-139.61078h109.90636v139.61078z" fill="#9966ff" stroke="#000000" stroke-width="2"/><path d="M273.69916,164.49627c3.75,0 3.75,3.75 3.75,3.75v2.40708c0,5.81672 0.03344,11.6347 0,17.45135c-0.02331,4.05499 0.42709,6.04791 -1.7636,9.79451c-3.95831,6.76965 -15.22757,5.9909 -21.84483,5.9909c-11.01643,0 -21.97567,-0.01893 -32.71851,-2.49888c-4.26241,-0.98396 -7.78473,-1.27508 -10.64228,-5.07616c-2.55814,-3.40282 -2.73135,-6.87626 -3.09667,-10.84971c-0.59042,-6.4216 -1.80736,-12.52663 -1.82356,-19.0244c0,0 0,-3.75 3.75,-3.75c3.75,0 3.75,3.75 3.75,3.75c-0.0177,6.23963 1.23301,12.11903 1.78706,18.28537c0.26464,2.94532 0.08386,4.61503 1.71749,7.20341c1.22357,1.93867 4.37601,1.72264 6.2073,2.14509c10.19023,2.35073 20.61266,2.31528 31.06917,2.31528c4.7444,0 10.40897,0.46446 14.78524,-1.78774c1.99565,-1.02704 1.33302,-5.03207 1.32319,-6.49768c-0.039,-5.81648 0,-11.63478 0,-17.45135v-2.40708c0,0 0,-3.75 3.75,-3.75z" fill="none" stroke="none" stroke-width="0.5"/><path d="M242.26771,220.60031c0,-2.07107 1.67893,-3.75 3.75,-3.75c2.07107,0 3.75,1.67893 3.75,3.75c0,2.07107 -1.67893,3.75 -3.75,3.75c-2.07107,0 -3.75,-1.67893 -3.75,-3.75z" fill="none" stroke="none" stroke-width="0.5"/><path d="M219.7232,218.95086c1.77127,0 2.88203,0.6605 3.57859,1.48891c5.89435,0.47059 11.81157,1.86016 17.61099,2.53556c7.66773,0.89298 14.80922,-0.68327 22.19997,-2.33327c1.01473,-0.63041 2.05491,-1.30313 3.19932,-1.63446c-0.05248,-0.00147 -0.09464,-0.01404 -0.11266,-0.04487c-0.2459,-0.42063 -0.12451,-0.98432 -0.33883,-1.42188c-0.46595,-0.95128 -1.12747,-1.79367 -1.6791,-2.69796c-1.89581,-3.10779 -3.84701,-6.07827 -5.85201,-9.10079c-2.35731,-3.55363 -3.84,-7.57935 -6.4236,-10.99515c-5.43366,-7.1839 -11.25918,-14.12261 -16.70308,-21.38114c0,0 -2.85,-3.8 0.95,-6.65c3.8,-2.85 6.65,0.95 6.65,0.95c2.70809,3.61079 5.76926,6.94291 8.51595,10.47556c1.96176,2.52311 3.31648,5.48648 5.31851,7.97776c0.79976,0.99521 1.9406,1.68957 2.70313,2.71358c4.02847,5.40993 7.50354,11.99327 10.99285,17.79841c2.65582,4.41846 7.73081,10.89763 4.82913,16.53476c-1.23993,2.40883 -6.16996,4.93516 -8.4141,6.25304c-8.90844,2.36998 -17.71708,3.9754 -26.99621,2.98524c-6.57379,-0.70148 -13.37201,-2.67118 -20.02884,-2.62366l-4.75,-6.07963c0,0 0,-4.75 4.75,-4.75z" fill="#ffffff" stroke="none" stroke-width="0.5"/><path d="M235.58241,143.92327c0,-2.62335 2.12665,-4.75 4.75,-4.75c2.62335,0 4.75,2.12665 4.75,4.75c0,2.62335 -2.12665,4.75 -4.75,4.75c-2.62335,0 -4.75,-2.12665 -4.75,-4.75z" fill="#ffffff" stroke="none" stroke-width="0.5"/></g></g></svg>