<svg version="1.1" xmlns="http://www.w3.org/2000/svg" xmlns:xlink="http://www.w3.org/1999/xlink" width="111.90636" height="141.61078" viewBox="0,0,111.90636,141.61078"><g transform="translate(-184.04683,-110.67984)"><g data-paper-data="{&quot;isPaintingLayer&quot;:true}" fill-rule="nonzero" stroke-linecap="butt" stroke-linejoin="miter" stroke-miterlimit="10" stroke-dasharray="" stroke-dashoffset="0" style="mix-blend-mode: normal"><path d="M185.04683,251.29062v-139.61078h109.90636v139.61078z" fill="#b100ff" stroke="#000000" stroke-width="2"/><path d="M185.04683,251.29062v-139.61078h109.90636v139.61078z" fill="#9966ff" stroke="#000000" stroke-width="2"/><path d="M236.29096,225.11932c-3.75,0 -3.75,-3.75 -3.75,-3.75c0,-7.25367 0,-16.32075 0,-23.57442c0,-5.448 0.08185,-10.53161 0.8011,-15.8395c-0.06555,-10.15705 -0.10238,-20.3158 0.10605,-30.46011c0.13716,-6.67559 0.91067,-13.20127 0.90627,-19.8901c0,0 0,-3.75 3.75,-3.75c3.75,0 3.75,3.75 3.75,3.75c-0.00049,0.77866 -0.01123,1.55509 -0.03005,2.32978c0.03004,0.2402 0.03004,0.39034 0.03004,0.39034c0,7.5559 0,15.11181 0,22.66771c0,4.28399 0.53474,9.05264 -0.04842,13.2946c-0.13017,0.94685 -0.73981,1.77906 -0.90671,2.72013c-0.04009,0.22606 -0.07123,0.45402 -0.09478,0.6836c0.0033,1.02485 0.00746,2.04973 0.01227,3.07462c0.12232,1.73741 0.33233,3.49576 0.10284,5.16638c-0.02424,0.17646 -0.04784,0.35258 -0.07081,0.52839c0.04375,6.92725 0.09891,13.85366 0.09891,20.77443c0,5.13801 0,10.27603 0,15.41404v0.90671c0,0 0,1.57573 -1.02142,2.68433c-0.25207,1.10787 -1.05807,2.87908 -3.63529,2.87908z" fill="#ffffff" stroke="none" stroke-width="0.5"/></g></g></svg>