<svg version="1.1" xmlns="http://www.w3.org/2000/svg" xmlns:xlink="http://www.w3.org/1999/xlink" width="111.90636" height="141.61078" viewBox="0,0,111.90636,141.61078"><g transform="translate(-184.04682,-110.67983)"><g data-paper-data="{&quot;isPaintingLayer&quot;:true}" fill-rule="nonzero" stroke-linecap="butt" stroke-linejoin="miter" stroke-miterlimit="10" stroke-dasharray="" stroke-dashoffset="0" style="mix-blend-mode: normal"><path d="M185.04682,251.29061v-139.61078h109.90636v139.61078z" fill="#9966ff" stroke="#000000" stroke-width="2"/><path d="M254.30883,189.37479c-4.65925,-0.96466 -9.55711,-0.52895 -14.30883,-0.52895c-7.2927,0 -14.56894,0.25913 -21.80038,1.17458c0,0 -0.43371,0.05421 -1.02351,-0.02245c0.07225,0.43956 0.13273,0.87774 0.01429,1.29227c-0.56375,1.97316 -1.8852,3.67315 -2.46254,5.64237c-0.44947,1.53307 -0.17684,3.21257 -0.58631,4.75681c-0.45238,1.70608 -1.46984,3.22154 -1.97745,4.912c-1.94778,6.48661 -3.16351,12.93658 -5.31455,19.39713c0,0 -1.18585,3.55756 -4.74342,2.37171c-3.55756,-1.18585 -2.37171,-4.74342 -2.37171,-4.74342c2.14637,-6.43142 3.34122,-12.82242 5.27959,-19.28957c0.4702,-1.56876 1.45245,-2.95961 1.8709,-4.54295c0.41823,-1.58249 0.15398,-3.30162 0.61723,-4.87152c0.5375,-1.8215 1.82988,-3.36342 2.35162,-5.1895c0.29596,-1.03583 -0.25614,-2.19983 0.05438,-3.23139c0.38039,-1.26369 1.4816,-2.21093 1.95469,-3.44291c2.39891,-6.247 3.32138,-13.18116 5.31238,-19.57713c1.96456,-6.31104 5.38087,-12.39106 7.9892,-18.47716c1.88146,-3.76836 3.66653,-7.55823 5.39695,-11.39205c0.81466,-1.80492 0.62791,-4.02035 1.67919,-5.69851c1.1703,-1.86816 2.21372,-4.78604 4.41379,-4.92492c4.5221,-0.28546 7.81967,9.13471 8.73218,12.25088c0.5336,1.8222 0.41658,3.8079 1.0457,5.59937c0.29952,0.85292 1.26723,1.32724 1.6708,2.13614c2.39669,4.80377 4.9748,10.3996 6.82549,15.48639c0.46125,1.2678 0.50823,2.67623 1.06733,3.90403c0.44434,0.97579 1.49549,1.60438 1.89425,2.59967c0.49485,1.23513 0.3356,2.65246 0.72032,3.9262c0.71224,2.35807 1.81754,4.58735 2.4991,6.95447c0.8568,5.09533 2.64681,9.24002 4.13668,14.15887c0.75768,2.50151 0.89137,5.15094 1.32264,7.72885c0.31698,1.89472 1.61718,3.49417 2.22257,5.31734c0.88056,2.65185 1.17591,5.4662 1.91262,8.16156c1.32096,4.83297 2.95924,9.30581 4.03478,14.17686c0.55932,0.68821 2.00422,2.88577 -0.19334,5.08333c-2.65165,2.65165 -5.3033,0 -5.3033,0l-1.6273,-2.51799c-1.02616,-5.13078 -2.78523,-9.76731 -4.15959,-14.8172c-0.6718,-2.46844 -0.88571,-5.05864 -1.69801,-7.48447c-0.76212,-2.276 -2.13717,-4.36128 -2.59159,-6.71807c-0.42918,-2.22589 -0.40611,-4.55062 -1.08445,-6.71364c-0.29687,-0.94665 -0.60235,-1.8702 -0.90852,-2.78068zM240,181.34585c4.93902,0 9.87873,-0.29392 14.74679,0.49113c-0.37775,-1.39989 -0.70504,-2.83507 -0.95364,-4.34125c-0.60763,-2.14816 -1.67775,-4.14494 -2.31507,-6.28448c-0.31691,-1.0639 -0.07162,-2.26408 -0.48322,-3.29505c-0.34628,-0.86736 -1.33048,-1.36403 -1.71638,-2.2145c-0.64943,-1.43125 -0.80288,-3.0436 -1.33975,-4.52076c-1.74544,-4.80243 -4.13952,-10.06437 -6.41346,-14.60214c-0.49382,-0.98545 -1.56444,-1.64166 -1.93982,-2.67803c-0.74678,-2.06174 -0.7402,-4.33305 -1.36139,-6.43605c-0.14444,-0.48899 -0.33389,-0.96147 -0.54252,-1.42699c-0.15032,0.35605 -0.2551,0.59434 -0.27836,0.64736c-1.70036,3.87652 -3.53718,7.68571 -5.43492,11.47524c-2.4816,5.79041 -5.8317,11.61989 -7.65683,17.62907c-1.62953,5.36516 -2.61905,11.06776 -4.26642,16.47403c6.62841,-0.68658 13.27906,-0.91759 19.95498,-0.91759z" fill="#000000" stroke="none" stroke-width="0.5"/></g></g></svg>