<svg version="1.1" xmlns="http://www.w3.org/2000/svg" xmlns:xlink="http://www.w3.org/1999/xlink" width="111.90636" height="141.61078" viewBox="0,0,111.90636,141.61078"><g transform="translate(-184.04682,-110.67983)"><g data-paper-data="{&quot;isPaintingLayer&quot;:true}" fill-rule="nonzero" stroke-linecap="butt" stroke-linejoin="miter" stroke-miterlimit="10" stroke-dasharray="" stroke-dashoffset="0" style="mix-blend-mode: normal"><path d="M185.04682,251.29061v-139.61078h109.90636v139.61078z" fill="none" stroke="#000000" stroke-width="2"/><path d="M185.04682,251.29061v-139.61078h109.90636v139.61078z" fill="#9966ff" stroke="#000000" stroke-width="2"/><path d="M273.69916,164.49627c3.75,0 3.75,3.75 3.75,3.75v2.40708c0,5.81672 0.03344,11.6347 0,17.45135c-0.02331,4.05499 0.42709,6.04791 -1.7636,9.79451c-3.95831,6.76965 -15.22757,5.9909 -21.84483,5.9909c-11.01643,0 -21.97567,-0.01893 -32.71851,-2.49888c-4.26241,-0.98396 -7.78473,-1.27508 -10.64228,-5.07616c-2.55814,-3.40282 -2.73135,-6.87626 -3.09667,-10.84971c-0.59042,-6.4216 -1.80736,-12.52663 -1.82356,-19.0244c0,0 0,-3.75 3.75,-3.75c3.75,0 3.75,3.75 3.75,3.75c-0.0177,6.23963 1.23301,12.11903 1.78706,18.28537c0.26464,2.94532 0.08386,4.61503 1.71749,7.20341c1.22357,1.93867 4.37601,1.72264 6.2073,2.14509c10.19023,2.35073 20.61266,2.31528 31.06917,2.31528c4.7444,0 10.40897,0.46446 14.78524,-1.78774c1.99565,-1.02704 1.33302,-5.03207 1.32319,-6.49768c-0.039,-5.81648 0,-11.63478 0,-17.45135v-2.40708c0,0 0,-3.75 3.75,-3.75z" fill="#ffffff" stroke="none" stroke-width="0.5"/><path d="M242.26771,220.60031c0,-2.07107 1.67893,-3.75 3.75,-3.75c2.07107,0 3.75,1.67893 3.75,3.75c0,2.07107 -1.67893,3.75 -3.75,3.75c-2.07107,0 -3.75,-1.67893 -3.75,-3.75z" fill="#ffffff" stroke="none" stroke-width="0.5"/></g></g></svg>