<svg version="1.1" xmlns="http://www.w3.org/2000/svg" xmlns:xlink="http://www.w3.org/1999/xlink" width="54.39302" height="43.00038" viewBox="0,0,54.39302,43.00038"><g transform="translate(-212.80349,-158.49981)"><g data-paper-data="{&quot;isPaintingLayer&quot;:true}" fill-rule="nonzero" stroke-linecap="butt" stroke-linejoin="miter" stroke-miterlimit="10" stroke-dasharray="" stroke-dashoffset="0" style="mix-blend-mode: normal"><path d="M226.45578,170.37293c4.75337,-6.53943 14.58208,-7.49734 21.95305,-2.13955c7.37097,5.35779 9.49295,15.0024 4.73958,21.54183c-4.75337,6.53943 -14.58208,7.49734 -21.95305,2.13955c-7.37097,-5.35779 -9.49295,-15.0024 -4.73958,-21.54183z" fill="#726658" stroke="none" stroke-width="1"/><path d="M226.45578,170.37293c4.75337,-6.53943 14.58208,-7.49734 21.95305,-2.13955c7.37097,5.35779 9.49295,15.0024 4.73958,21.54183c-4.75337,6.53943 -14.58208,7.49734 -21.95305,2.13955c-7.37097,-5.35779 -9.49295,-15.0024 -4.73958,-21.54183z" fill="none" stroke="#ffffff" stroke-width="0.5"/><path d="M250.41362,192.55778c-4.67858,-1.90689 -9.63331,-5.37237 -14.00131,-10.11582c-4.03716,-4.38378 -6.94645,-9.17544 -8.56084,-13.68031" fill="none" stroke="#c2b59b" stroke-width="0.5"/><path d="M248.03466,193.93036c-3.1428,-0.54415 -6.10884,-2.14731 -8.43473,-4.56476" fill="none" stroke="#c2b59b" stroke-width="0.5"/><path d="M226.91577,178.80984c-0.9874,-0.75209 -1.93743,-1.59986 -2.83418,-2.53904" fill="none" stroke="#c2b59b" stroke-width="0.5"/><path d="M238.03053,187.8117c-3.77499,0.31251 -8.34427,-1.00236 -12.93743,-3.69171" fill="none" stroke="#c2b59b" stroke-width="0.5"/><path d="M239.05717,185.09859c-4.14775,0.8203 -9.49262,-0.59547 -14.82722,-3.84717" fill="none" stroke="#c2b59b" stroke-width="0.5"/><path d="M243.08423,188.4038c-2.24043,1.15886 -4.84858,1.2322 -7.45432,0.40791" fill="none" stroke="#c2b59b" stroke-width="0.5"/><path d="M240.40148,186.40989c-3.814,2.4968 -7.86435,3.76958 -11.40993,3.64778" fill="none" stroke="#c2b59b" stroke-width="0.5"/><path d="M237.68452,194.92203c-0.90846,-1.50854 -1.65493,-3.18963 -2.19005,-5.00958c-0.09044,-0.30411 -0.17262,-0.60954 -0.24863,-0.91339" fill="none" stroke="#c2b59b" stroke-width="0.5"/><path d="M241.76908,195.42901c-1.7388,-1.64778 -3.23595,-3.74875 -4.3365,-6.18809" fill="none" stroke="#c2b59b" stroke-width="0.5"/><path d="M227.24601,182.87631c-0.84044,-3.86552 -0.36318,-8.047 1.53395,-11.80477" fill="none" stroke="#c2b59b" stroke-width="0.5"/><path d="M251.98002,191.26289c-4.76913,-2.28128 -8.76845,-7.50478 -10.21555,-14.15918c-0.91176,-4.19595 -0.66434,-8.29661 0.49396,-11.77028" fill="none" stroke="#c2b59b" stroke-width="0.5"/><path d="M253.97758,174.61741c-0.28517,1.53811 -0.92436,3.06532 -1.93044,4.44942c-1.9798,2.72371 -4.92868,4.26773 -7.84487,4.41477" fill="none" stroke="#c2b59b" stroke-width="0.5"/><path d="M231.4306,176.04299c0.27611,-0.60217 0.61371,-1.18231 1.01572,-1.73538c3.58681,-4.93454 10.88965,-5.74065 16.31123,-1.79982c5.42062,3.94013 6.90834,11.13517 3.32119,16.07019c-0.4973,0.68416 -1.06585,1.28727 -1.69025,1.81031" fill="none" stroke="#c2b59b" stroke-width="0.5"/><path d="M224.27816,175.36089c-6.34089,-7.57411 -9.53634,-13.97697 -7.55156,-16.12306c2.83751,-3.07277 15.205,3.72983 27.62135,15.19725c12.41683,11.46776 20.18187,23.25417 17.34402,26.32742c-1.94622,2.10612 -8.36965,-0.42926 -16.21756,-5.92607c0,0 0.92023,-0.22684 1.18604,-0.29175c0.26581,-0.06491 0.90297,-0.37612 0.90297,-0.37612c3.73367,2.18379 6.5434,3.01012 7.51877,1.95395c1.91583,-2.07336 -3.96554,-10.61867 -13.13574,-19.08673c-9.16903,-8.46866 -18.15462,-13.65174 -20.07045,-11.57837c-1.03184,1.11676 0.19949,4.11255 2.98882,7.9637c0,0 -0.25121,0.70875 -0.31912,0.93798c-0.06639,0.22814 -0.26753,1.0018 -0.26753,1.0018z" data-paper-data="{&quot;index&quot;:null}" fill="#f4fa32" stroke="none" stroke-width="1" opacity="0.8"/><g fill="none" stroke="#c2b59b" stroke-width="0.5"><path d="M223.94541,177.14724c-3.22989,-2.87787 -4.88297,-5.29546 -4.17887,-6.5488c1.38142,-2.46181 11.32416,0.49507 22.20883,6.60446c10.88488,6.10809 18.58793,13.05561 17.20699,15.51777c-0.74383,1.32611 -3.97339,1.07938 -8.49735,-0.38535"/><path d="M223.95432,179.34004c-7.65038,-5.76856 -12.04428,-11.09606 -10.64156,-13.59723c2.04749,-3.64775 15.65492,0.10102 30.39479,8.37286c14.7394,8.2715 25.02658,17.93607 22.97944,21.58335c-1.42884,2.55019 -8.50531,1.48662 -17.66654,-2.20742"/></g></g></g></svg>